<?xml version="1.0" encoding="UTF-8" standalone="no"?>
<svg width="1080" height="1080" viewBox="-540 -540 1080 1080" xmlns="http://www.w3.org/2000/svg">
<path d="M0.00,0.00L-540.00,-0.00" stroke="gray" fill="transparent" stroke-width="1"/>

<text x="-530" y="-10.000048" style="font: 20px sans-serif;" fill="gray">-180</text>
<path d="M0.00,0.00L-467.65,270.00" stroke="gray" fill="transparent" stroke-width="1"/>

<text x="-457.65372" y="260.00003" style="font: 20px sans-serif;" fill="gray">-150</text>
<path d="M0.00,0.00L-270.00,467.65" stroke="gray" fill="transparent" stroke-width="1"/>

<text x="-260.00003" y="457.65372" style="font: 20px sans-serif;" fill="gray">-120</text>
<path d="M0.00,0.00L-0.00,540.00" stroke="gray" fill="transparent" stroke-width="1"/>

<text x="9.999976" y="530" style="font: 20px sans-serif;" fill="gray">-90</text>
<path d="M0.00,0.00L270.00,467.65" stroke="gray" fill="transparent" stroke-width="1"/>

<text x="280" y="457.65372" style="font: 20px sans-serif;" fill="gray">-60</text>
<path d="M0.00,0.00L467.65,270.00" stroke="gray" fill="transparent" stroke-width="1"/>

<text x="477.65372" y="260" style="font: 20px sans-serif;" fill="gray">-30</text>
<path d="M0.00,0.00L540.00,-0.00" stroke="gray" fill="transparent" stroke-width="1"/>

<path d="M0.00,0.00L467.65,-270.00" stroke="gray" fill="transparent" stroke-width="1"/>

<text x="477.65372" y="-280" style="font: 20px sans-serif;" fill="gray">30</text>
<path d="M0.00,0.00L270.00,-467.65" stroke="gray" fill="transparent" stroke-width="1"/>

<text x="280" y="-477.65372" style="font: 20px sans-serif;" fill="gray">60</text>
<path d="M0.00,0.00L-0.00,-540.00" stroke="gray" fill="transparent" stroke-width="1"/>

<text x="9.999976" y="-550" style="font: 20px sans-serif;" fill="gray">90</text>
<path d="M0.00,0.00L-270.00,-467.65" stroke="gray" fill="transparent" stroke-width="1"/>

<text x="-260.00003" y="-477.65372" style="font: 20px sans-serif;" fill="gray">120</text>
<path d="M0.00,0.00L-467.65,-270.00" stroke="gray" fill="transparent" stroke-width="1"/>

<text x="-457.65372" y="-280.00003" style="font: 20px sans-serif;" fill="gray">150</text>
<path d="M0.00,0.00A0.00,0.00,0.00,0,0,0.00,0.00A0.00,0.00,0.00,0,0,0.00,0.00Z" stroke="gray" fill="transparent" stroke-width="1"/>

<text x="10" y="-10" style="font: 20px sans-serif;" fill="gray">0</text>
<path d="M-60.00,0.00A60.00,60.00,0.00,0,0,60.00,0.00A60.00,60.00,0.00,0,0,-60.00,0.00Z" stroke="gray" fill="transparent" stroke-width="1"/>

<text x="70" y="-10" style="font: 20px sans-serif;" fill="gray">10</text>
<path d="M-120.00,0.00A120.00,120.00,0.00,0,0,120.00,0.00A120.00,120.00,0.00,0,0,-120.00,0.00Z" stroke="gray" fill="transparent" stroke-width="1"/>

<text x="130" y="-10" style="font: 20px sans-serif;" fill="gray">20</text>
<path d="M-180.00,0.00A180.00,180.00,0.00,0,0,180.00,0.00A180.00,180.00,0.00,0,0,-180.00,0.00Z" stroke="gray" fill="transparent" stroke-width="1"/>

<text x="190" y="-10" style="font: 20px sans-serif;" fill="gray">30</text>
<path d="M-240.00,0.00A240.00,240.00,0.00,0,0,240.00,0.00A240.00,240.00,0.00,0,0,-240.00,0.00Z" stroke="gray" fill="transparent" stroke-width="1"/>

<text x="250" y="-10" style="font: 20px sans-serif;" fill="gray">40</text>
<path d="M-300.00,0.00A300.00,300.00,0.00,0,0,300.00,0.00A300.00,300.00,0.00,0,0,-300.00,0.00Z" stroke="gray" fill="transparent" stroke-width="1"/>

<text x="310" y="-10" style="font: 20px sans-serif;" fill="gray">50</text>
<path d="M-360.00,0.00A360.00,360.00,0.00,0,0,360.00,0.00A360.00,360.00,0.00,0,0,-360.00,0.00Z" stroke="gray" fill="transparent" stroke-width="1"/>

<text x="370" y="-10" style="font: 20px sans-serif;" fill="gray">60</text>
<path d="M-420.00,0.00A420.00,420.00,0.00,0,0,420.00,0.00A420.00,420.00,0.00,0,0,-420.00,0.00Z" stroke="gray" fill="transparent" stroke-width="1"/>

<text x="430" y="-10" style="font: 20px sans-serif;" fill="gray">70</text>
<path d="M-480.00,0.00A480.00,480.00,0.00,0,0,480.00,0.00A480.00,480.00,0.00,0,0,-480.00,0.00Z" stroke="gray" fill="transparent" stroke-width="1"/>

<text x="490" y="-10" style="font: 20px sans-serif;" fill="gray">80</text>
<path d="M-540.00,0.00A540.00,540.00,0.00,0,0,540.00,0.00A540.00,540.00,0.00,0,0,-540.00,0.00Z" stroke="gray" fill="transparent" stroke-width="1"/>

<text x="550" y="-10" style="font: 20px sans-serif;" fill="gray">90</text>
<path d="M0.00,0.00L2.00,0.04L4.00,0.15L5.99,0.33L7.98,0.58L9.96,0.91L11.93,1.31L13.89,1.79L15.83,2.33L17.76,2.95
L19.67,3.63L21.56,4.39L23.43,5.22L25.27,6.11L27.09,7.08L28.88,8.11L30.65,9.21L32.38,10.38L34.08,11.61L35.74,12.91
L37.37,14.27L38.96,15.69L40.51,17.17L42.02,18.72L43.48,20.32L44.91,21.99L46.28,23.71L47.61,25.48L48.89,27.31L50.12,29.20
L51.29,31.13L52.41,33.12L53.48,35.15L54.49,37.24L55.45,39.36L56.34,41.54L57.18,43.76L57.95,46.01L58.67,48.31L59.32,50.65
L59.91,53.02L60.43,55.43L60.89,57.87L61.28,60.34L61.60,62.85L61.85,65.38L62.04,67.94L62.15,70.52L62.20,73.12L62.18,75.75
L62.08,78.40L61.91,81.06L61.68,83.74L61.36,86.43L60.98,89.14L60.52,91.85L59.99,94.58L59.39,97.31L58.71,100.04L57.97,102.78
L57.14,105.52L56.25,108.26L55.28,111.00L54.23,113.73L53.12,116.46L51.93,119.18L50.66,121.89L49.33,124.59L47.92,127.28L46.45,129.95
L44.90,132.61L43.28,135.24L41.59,137.86L39.83,140.46L38.00,143.04L36.11,145.59L34.14,148.12L32.11,150.61L30.02,153.09L27.85,155.53
L25.63,157.93L23.33,160.31L20.98,162.65L18.56,164.96L16.09,167.23L13.55,169.46L10.95,171.65L8.30,173.80L5.59,175.91L2.82,177.98
L-0.00,180.00L-2.88,181.98L-5.80,183.91L-8.78,185.79L-11.81,187.63L-14.89,189.42L-18.02,191.15L-21.19,192.84L-24.41,194.47L-27.68,196.06
L-30.98,197.59L-34.33,199.06L-37.72,200.48L-41.14,201.85L-44.61,203.16L-48.11,204.41L-51.65,205.61L-55.22,206.75L-58.82,207.84L-62.45,208.86
L-66.11,209.83L-69.80,210.74L-73.52,211.59L-77.27,212.38L-81.04,213.11L-84.83,213.79L-88.64,214.40L-92.47,214.95L-96.33,215.45L-100.20,215.88
L-104.08,216.26L-107.99,216.57L-111.90,216.83L-115.83,217.02L-119.77,217.16L-123.73,217.24L-127.69,217.26L-131.65,217.22L-135.63,217.12L-139.61,216.96
L-143.59,216.75L-147.58,216.48L-151.57,216.15L-155.56,215.77L-159.55,215.33L-163.54,214.84L-167.53,214.29L-171.51,213.68L-175.49,213.03L-179.46,212.32
L-183.43,211.55L-187.39,210.74L-191.34,209.87L-195.28,208.95L-199.21,207.98L-203.14,206.97L-207.05,205.90L-210.94,204.79L-214.83,203.63L-218.70,202.43
L-222.55,201.17L-226.39,199.88L-230.21,198.54L-234.02,197.16L-237.81,195.73L-241.58,194.27L-245.33,192.76L-249.06,191.22L-252.77,189.64L-256.46,188.02
L-260.13,186.36L-263.78,184.67L-267.41,182.94L-271.02,181.18L-274.60,179.39L-278.16,177.56L-281.69,175.71L-285.20,173.82L-288.69,171.91L-292.15,169.97
L-295.59,168.00L-299.01,166.01L-302.39,163.99L-305.76,161.95L-309.10,159.89L-312.41,157.80L-315.69,155.70L-318.95,153.57L-322.19,151.43L-325.40,149.27
L-328.58,147.09L-331.74,144.89L-334.87,142.69L-337.97,140.47L-341.05,138.23L-344.10,135.99L-347.13,133.73L-350.13,131.47L-353.11,129.20L-356.06,126.92
L-358.98,124.63L-361.88,122.34L-364.75,120.05L-367.60,117.75L-370.43,115.45L-373.23,113.14L-376.00,110.84L-378.76,108.54L-381.48,106.24L-384.19,103.94
L-386.87,101.65L-389.53,99.36L-392.16,97.07L-394.78,94.79L-397.37,92.52L-399.94,90.26L-402.49,88.00L-405.02,85.76L-407.53,83.53L-410.02,81.31
L-412.48,79.10L-414.93,76.90L-417.36,74.72L-419.78,72.56L-422.17,70.41L-424.54,68.28L-426.90,66.16L-429.25,64.07L-431.57,61.99L-433.88,59.94
L-436.17,57.90L-438.45,55.89L-440.72,53.90L-442.97,51.94L-445.20,50.00L-447.42,48.08L-449.63,46.19L-451.83,44.33L-454.02,42.49L-456.19,40.68
L-458.35,38.91L-460.50,37.16L-462.64,35.44L-464.78,33.76L-466.90,32.10L-469.01,30.48L-471.11,28.90L-473.21,27.34L-475.30,25.83L-477.38,24.35
L-479.45,22.90L-481.52,21.49L-483.58,20.12L-485.64,18.79L-487.69,17.50L-489.73,16.25L-491.77,15.04L-493.81,13.87L-495.84,12.74L-497.86,11.66
L-499.89,10.62L-501.91,9.62L-503.93,8.67L-505.94,7.77L-507.95,6.91L-509.96,6.10L-511.97,5.33L-513.98,4.62L-515.98,3.95L-517.99,3.33
L-519.99,2.76L-522.00,2.25L-524.00,1.78L-526.00,1.37L-528.00,1.01L-530.00,0.70L-532.00,0.45L-534.00,0.26L-536.00,0.11L-538.00,0.03
L-540.00,-0.00" stroke="black" fill="transparent" stroke-width="2" stroke-linecap="round" stroke-linejoin="round"/>

<path d="M0.00,0.00L2.00,0.03L4.00,0.12L5.99,0.27L7.99,0.49L9.97,0.76L11.95,1.09L13.92,1.49L15.88,1.94L17.83,2.46
L19.77,3.03L21.69,3.67L23.60,4.36L25.49,5.11L27.37,5.92L29.22,6.79L31.06,7.71L32.87,8.69L34.66,9.73L36.43,10.82
L38.17,11.97L39.88,13.17L41.57,14.43L43.22,15.74L44.85,17.10L46.44,18.52L48.01,19.99L49.53,21.50L51.03,23.07L52.49,24.68
L53.91,26.35L55.29,28.06L56.63,29.81L57.94,31.62L59.20,33.46L60.42,35.35L61.59,37.28L62.73,39.26L63.82,41.27L64.86,43.33
L65.86,45.42L66.81,47.55L67.71,49.72L68.56,51.92L69.36,54.15L70.12,56.42L70.82,58.72L71.47,61.06L72.07,63.42L72.62,65.81
L73.11,68.23L73.55,70.67L73.94,73.14L74.27,75.63L74.54,78.15L74.76,80.69L74.93,83.24L75.04,85.82L75.09,88.42L75.09,91.03
L75.02,93.66L74.91,96.30L74.73,98.95L74.50,101.62L74.20,104.30L73.86,106.98L73.45,109.68L72.98,112.38L72.46,115.09L71.88,117.80
L71.24,120.52L70.54,123.24L69.79,125.96L68.98,128.68L68.11,131.40L67.18,134.11L66.20,136.83L65.16,139.54L64.06,142.24L62.90,144.94
L61.69,147.63L60.43,150.31L59.11,152.98L57.73,155.64L56.30,158.29L54.81,160.92L53.27,163.54L51.68,166.15L50.04,168.74L48.34,171.31
L46.59,173.87L44.79,176.40L42.93,178.92L41.03,181.42L39.08,183.89L37.08,186.35L35.03,188.78L32.93,191.18L30.79,193.57L28.60,195.92
L26.36,198.26L24.08,200.56L21.75,202.84L19.38,205.09L16.97,207.31L14.52,209.50L12.02,211.66L9.48,213.79L6.91,215.89L4.29,217.96
L1.64,219.99L-1.05,222.00L-3.78,223.97L-6.55,225.91L-9.35,227.81L-12.18,229.68L-15.05,231.51L-17.94,233.31L-20.88,235.07L-23.84,236.80
L-26.83,238.50L-29.85,240.15L-32.90,241.77L-35.97,243.36L-39.08,244.90L-42.21,246.41L-45.36,247.88L-48.54,249.32L-51.74,250.72L-54.96,252.08
L-58.21,253.40L-61.47,254.69L-64.76,255.93L-68.06,257.15L-71.38,258.32L-74.72,259.45L-78.08,260.55L-81.45,261.61L-84.83,262.64L-88.24,263.63
L-91.65,264.58L-95.08,265.49L-98.51,266.37L-101.96,267.21L-105.42,268.01L-108.89,268.78L-112.36,269.51L-115.85,270.21L-119.34,270.88L-122.84,271.50
L-126.34,272.10L-129.85,272.66L-133.36,273.19L-136.88,273.68L-140.40,274.14L-143.92,274.57L-147.44,274.96L-150.97,275.33L-154.49,275.66L-158.02,275.96
L-161.54,276.23L-165.06,276.48L-168.58,276.69L-172.09,276.87L-175.61,277.03L-179.12,277.16L-182.62,277.26L-186.12,277.34L-189.61,277.39L-193.10,277.41
L-196.58,277.41L-200.06,277.38L-203.53,277.33L-206.98,277.26L-210.44,277.17L-213.88,277.05L-217.31,276.91L-220.73,276.75L-224.15,276.58L-227.55,276.38
L-230.94,276.16L-234.32,275.93L-237.69,275.68L-241.05,275.41L-244.39,275.13L-247.72,274.83L-251.04,274.52L-254.35,274.19L-257.64,273.86L-260.92,273.50
L-264.18,273.14L-267.43,272.77L-270.67,272.38L-273.89,271.99L-277.10,271.59L-280.29,271.18L-283.46,270.76L-286.62,270.34L-289.77,269.91L-292.89,269.48
L-296.00,269.04L-299.10,268.60L-302.18,268.15L-305.24,267.70L-308.28,267.25L-311.31,266.81L-314.32,266.36L-317.31,265.91L-320.29,265.46L-323.25,265.02
L-326.19,264.58L-329.11,264.14L-332.02,263.71L-334.90,263.28L-337.77,262.86L-340.62,262.44L-343.45,262.04L-346.27,261.64L-349.06,261.25L-351.84,260.87
L-354.60,260.50L-357.34,260.14L-360.06,259.79L-362.77,259.45L-365.45,259.13L-368.12,258.82L-370.76,258.53L-373.39,258.25L-376.00,257.99L-378.59,257.74
L-381.16,257.52L-383.72,257.31L-386.25,257.12L-388.76,256.94L-391.26,256.79L-393.73,256.66L-396.19,256.55L-398.63,256.46L-401.04,256.40L-403.44,256.36
L-405.82,256.34L-408.18,256.35L-410.52,256.38L-412.84,256.44L-415.14,256.52L-417.42,256.63L-419.68,256.77L-421.92,256.94L-424.14,257.14L-426.34,257.37
L-428.52,257.63L-430.68,257.91L-432.82,258.23L-434.94,258.59L-437.03,258.97L-439.11,259.39L-441.17,259.84L-443.20,260.32L-445.21,260.84L-447.21,261.40
L-449.18,261.99L-451.13,262.62L-453.05,263.29L-454.96,263.99L-456.84,264.73L-458.70,265.51L-460.54,266.33L-462.35,267.18L-464.14,268.08L-465.91,269.02
L-467.65,270.00" stroke="brown" fill="transparent" stroke-width="2" stroke-linecap="round" stroke-linejoin="round"/>

<path d="M0.00,0.00L2.00,0.02L4.00,0.10L6.00,0.22L7.99,0.39L9.98,0.61L11.97,0.88L13.95,1.19L15.92,1.56L17.89,1.97
L19.85,2.43L21.80,2.94L23.74,3.49L25.68,4.10L27.59,4.75L29.50,5.45L31.40,6.19L33.28,6.98L35.14,7.82L36.99,8.70
L38.82,9.63L40.64,10.60L42.44,11.62L44.22,12.69L45.98,13.79L47.71,14.95L49.43,16.14L51.13,17.38L52.80,18.66L54.45,19.98
L56.08,21.34L57.68,22.75L59.25,24.19L60.80,25.68L62.32,27.20L63.82,28.77L65.28,30.37L66.72,32.01L68.13,33.69L69.50,35.40
L70.85,37.16L72.16,38.94L73.45,40.76L74.70,42.62L75.91,44.51L77.10,46.43L78.25,48.39L79.36,50.37L80.44,52.39L81.49,54.44
L82.50,56.52L83.47,58.63L84.40,60.76L85.30,62.93L86.16,65.12L86.98,67.34L87.76,69.58L88.51,71.85L89.21,74.14L89.88,76.46
L90.51,78.79L91.09,81.15L91.64,83.54L92.14,85.94L92.61,88.36L93.03,90.80L93.41,93.26L93.76,95.74L94.06,98.23L94.31,100.74
L94.53,103.27L94.70,105.81L94.84,108.36L94.93,110.93L94.97,113.51L94.98,116.10L94.94,118.70L94.86,121.31L94.74,123.94L94.58,126.57
L94.37,129.21L94.12,131.85L93.83,134.50L93.50,137.16L93.12,139.83L92.71,142.50L92.25,145.17L91.75,147.84L91.21,150.52L90.62,153.20
L90.00,155.88L89.33,158.57L88.63,161.25L87.88,163.93L87.09,166.61L86.27,169.29L85.40,171.96L84.49,174.63L83.55,177.30L82.56,179.97
L81.54,182.63L80.47,185.28L79.37,187.93L78.23,190.57L77.06,193.20L75.84,195.83L74.59,198.44L73.30,201.05L71.98,203.65L70.62,206.24
L69.23,208.82L67.80,211.39L66.34,213.95L64.84,216.50L63.31,219.03L61.74,221.56L60.15,224.07L58.52,226.57L56.85,229.05L55.16,231.52
L53.44,233.97L51.69,236.42L49.90,238.84L48.09,241.25L46.25,243.65L44.38,246.03L42.48,248.39L40.55,250.74L38.60,253.07L36.62,255.39
L34.62,257.69L32.59,259.97L30.53,262.23L28.45,264.47L26.35,266.70L24.22,268.91L22.07,271.10L19.90,273.28L17.71,275.43L15.50,277.57
L13.26,279.69L11.01,281.78L8.74,283.87L6.45,285.93L4.13,287.97L1.81,289.99L-0.54,292.00L-2.90,293.99L-5.28,295.95L-7.67,297.90
L-10.08,299.83L-12.50,301.74L-14.94,303.63L-17.39,305.51L-19.85,307.36L-22.33,309.20L-24.81,311.01L-27.31,312.81L-29.82,314.59L-32.34,316.35
L-34.86,318.10L-37.40,319.82L-39.95,321.53L-42.50,323.22L-45.06,324.89L-47.63,326.54L-50.20,328.18L-52.78,329.80L-55.37,331.41L-57.96,332.99
L-60.55,334.56L-63.15,336.12L-65.75,337.66L-68.35,339.18L-70.96,340.69L-73.57,342.18L-76.18,343.66L-78.79,345.12L-81.40,346.57L-84.01,348.00
L-86.62,349.42L-89.23,350.83L-91.84,352.22L-94.45,353.60L-97.05,354.97L-99.65,356.33L-102.25,357.67L-104.84,359.00L-107.43,360.33L-110.02,361.64
L-112.60,362.94L-115.17,364.22L-117.74,365.50L-120.30,366.77L-122.86,368.04L-125.41,369.29L-127.95,370.53L-130.48,371.77L-133.00,373.00L-135.52,374.22
L-138.03,375.43L-140.52,376.64L-143.01,377.84L-145.49,379.04L-147.95,380.23L-150.41,381.41L-152.85,382.60L-155.29,383.77L-157.71,384.95L-160.11,386.12
L-162.51,387.29L-164.89,388.45L-167.26,389.62L-169.61,390.78L-171.95,391.94L-174.27,393.10L-176.58,394.26L-178.88,395.42L-181.16,396.58L-183.42,397.75
L-185.66,398.91L-187.89,400.07L-190.11,401.24L-192.30,402.41L-194.48,403.59L-196.64,404.76L-198.78,405.94L-200.90,407.13L-203.01,408.32L-205.09,409.51
L-207.16,410.71L-209.20,411.92L-211.22,413.13L-213.23,414.35L-215.21,415.58L-217.17,416.82L-219.11,418.06L-221.03,419.31L-222.93,420.57L-224.80,421.84
L-226.65,423.12L-228.48,424.41L-230.29,425.70L-232.07,427.01L-233.82,428.33L-235.56,429.67L-237.26,431.01L-238.95,432.37L-240.61,433.73L-242.24,435.12
L-243.84,436.51L-245.42,437.92L-246.98,439.34L-248.50,440.78L-250.00,442.23L-251.47,443.69L-252.92,445.17L-254.33,446.67L-255.72,448.18L-257.07,449.71
L-258.40,451.25L-259.70,452.81L-260.97,454.39L-262.21,455.99L-263.42,457.60L-264.59,459.23L-265.74,460.88L-266.85,462.54L-267.93,464.23L-268.98,465.93
L-270.00,467.65" stroke="red" fill="transparent" stroke-width="2" stroke-linecap="round" stroke-linejoin="round"/>

<path d="M0.00,0.00L2.00,0.02L4.00,0.07L6.00,0.16L7.99,0.29L9.99,0.46L11.98,0.66L13.97,0.89L15.96,1.17L17.94,1.48
L19.92,1.82L21.89,2.21L23.86,2.62L25.82,3.08L27.77,3.57L29.72,4.09L31.66,4.66L33.59,5.25L35.52,5.88L37.43,6.55
L39.34,7.25L41.23,7.99L43.12,8.76L44.99,9.57L46.86,10.41L48.71,11.28L50.55,12.19L52.38,13.14L54.19,14.11L55.99,15.12
L57.78,16.16L59.56,17.24L61.31,18.35L63.06,19.49L64.79,20.66L66.50,21.86L68.19,23.10L69.87,24.37L71.54,25.66L73.18,26.99
L74.81,28.35L76.42,29.74L78.01,31.16L79.58,32.61L81.13,34.08L82.66,35.59L84.18,37.12L85.67,38.69L87.14,40.28L88.59,41.90
L90.02,43.54L91.43,45.21L92.82,46.91L94.18,48.64L95.52,50.39L96.84,52.16L98.14,53.97L99.41,55.79L100.67,57.64L101.89,59.52
L103.09,61.41L104.27,63.33L105.43,65.28L106.56,67.24L107.66,69.23L108.74,71.24L109.80,73.27L110.83,75.32L111.83,77.39L112.81,79.48
L113.77,81.59L114.69,83.72L115.60,85.87L116.47,88.04L117.32,90.22L118.14,92.42L118.94,94.64L119.71,96.88L120.45,99.13L121.17,101.40
L121.86,103.68L122.52,105.98L123.16,108.29L123.77,110.62L124.35,112.96L124.91,115.32L125.44,117.69L125.94,120.07L126.41,122.46L126.86,124.86
L127.28,127.28L127.67,129.71L128.04,132.14L128.38,134.59L128.69,137.05L128.98,139.52L129.24,141.99L129.47,144.48L129.67,146.97L129.85,149.47
L130.01,151.98L130.13,154.50L130.23,157.02L130.31,159.55L130.36,162.08L130.38,164.63L130.37,167.17L130.35,169.72L130.29,172.28L130.21,174.84
L130.11,177.40L129.98,179.97L129.82,182.54L129.64,185.12L129.44,187.70L129.21,190.28L128.96,192.86L128.68,195.44L128.38,198.03L128.06,200.61
L127.71,203.20L127.34,205.79L126.95,208.38L126.53,210.96L126.10,213.55L125.64,216.14L125.15,218.72L124.65,221.31L124.13,223.89L123.58,226.48
L123.02,229.06L122.43,231.64L121.82,234.21L121.20,236.79L120.55,239.36L119.88,241.93L119.20,244.49L118.50,247.05L117.77,249.61L117.03,252.16
L116.28,254.72L115.50,257.26L114.71,259.80L113.90,262.34L113.07,264.88L112.23,267.40L111.37,269.93L110.50,272.45L109.61,274.96L108.70,277.47
L107.78,279.97L106.85,282.47L105.90,284.96L104.94,287.44L103.97,289.92L102.98,292.39L101.98,294.86L100.97,297.32L99.95,299.78L98.92,302.22
L97.87,304.67L96.81,307.10L95.75,309.53L94.67,311.95L93.58,314.37L92.49,316.77L91.38,319.18L90.27,321.57L89.15,323.96L88.02,326.34
L86.89,328.71L85.74,331.08L84.59,333.44L83.44,335.79L82.28,338.13L81.11,340.47L79.94,342.80L78.76,345.13L77.58,347.44L76.39,349.75
L75.20,352.06L74.01,354.35L72.82,356.64L71.62,358.92L70.42,361.20L69.22,363.47L68.01,365.73L66.81,367.98L65.60,370.23L64.40,372.47
L63.20,374.71L61.99,376.94L60.79,379.16L59.59,381.37L58.39,383.58L57.19,385.78L55.99,387.98L54.80,390.17L53.61,392.35L52.43,394.53
L51.25,396.70L50.07,398.87L48.89,401.03L47.73,403.18L46.57,405.33L45.41,407.48L44.26,409.62L43.11,411.75L41.98,413.88L40.85,416.00
L39.73,418.12L38.61,420.23L37.51,422.34L36.41,424.44L35.33,426.54L34.25,428.63L33.18,430.72L32.12,432.81L31.08,434.89L30.04,436.97
L29.01,439.04L28.00,441.11L27.00,443.18L26.01,445.24L25.04,447.30L24.07,449.36L23.13,451.41L22.19,453.46L21.27,455.50L20.36,457.55
L19.47,459.59L18.59,461.63L17.73,463.66L16.89,465.69L16.06,467.72L15.25,469.75L14.45,471.78L13.68,473.80L12.92,475.82L12.18,477.84
L11.45,479.86L10.75,481.88L10.06,483.90L9.40,485.91L8.75,487.92L8.13,489.93L7.52,491.94L6.94,493.95L6.37,495.96L5.83,497.97
L5.31,499.97L4.81,501.98L4.34,503.98L3.88,505.99L3.45,507.99L3.05,509.99L2.67,511.99L2.31,513.99L1.97,516.00L1.67,518.00
L1.38,520.00L1.12,522.00L0.89,524.00L0.69,526.00L0.51,528.00L0.35,530.00L0.23,532.00L0.13,534.00L0.06,536.00L0.01,538.00
L-0.00,540.00" stroke="darkblue" fill="transparent" stroke-width="2" stroke-linecap="round" stroke-linejoin="round"/>

<path d="M0.00,0.00L2.00,0.01L4.00,0.05L6.00,0.11L8.00,0.19L10.00,0.30L11.99,0.44L13.99,0.60L15.98,0.78L17.97,0.99
L19.96,1.22L21.95,1.47L23.94,1.75L25.92,2.06L27.90,2.38L29.88,2.73L31.85,3.11L33.82,3.51L35.78,3.93L37.75,4.38
L39.70,4.85L41.66,5.35L43.61,5.86L45.55,6.41L47.49,6.97L49.43,7.56L51.35,8.17L53.28,8.81L55.19,9.46L57.11,10.15
L59.01,10.85L60.91,11.58L62.80,12.33L64.69,13.10L66.57,13.90L68.44,14.71L70.30,15.55L72.16,16.41L74.01,17.30L75.85,18.20
L77.68,19.13L79.50,20.08L81.32,21.05L83.13,22.05L84.92,23.06L86.71,24.10L88.50,25.15L90.27,26.23L92.03,27.33L93.78,28.45
L95.52,29.58L97.26,30.74L98.98,31.92L100.69,33.12L102.39,34.34L104.09,35.58L105.77,36.84L107.44,38.12L109.10,39.42L110.75,40.73
L112.39,42.07L114.01,43.42L115.63,44.79L117.23,46.18L118.82,47.59L120.40,49.02L121.97,50.46L123.53,51.93L125.08,53.41L126.61,54.90
L128.13,56.42L129.64,57.95L131.13,59.50L132.62,61.06L134.09,62.64L135.55,64.24L136.99,65.85L138.43,67.48L139.85,69.12L141.26,70.78
L142.65,72.46L144.03,74.15L145.40,75.85L146.76,77.57L148.10,79.31L149.43,81.05L150.75,82.82L152.05,84.59L153.34,86.38L154.62,88.18
L155.88,90.00L157.14,91.83L158.37,93.67L159.60,95.53L160.81,97.39L162.00,99.27L163.19,101.16L164.36,103.06L165.52,104.98L166.66,106.90
L167.79,108.84L168.91,110.79L170.01,112.75L171.10,114.72L172.18,116.70L173.24,118.69L174.29,120.69L175.33,122.70L176.36,124.72L177.37,126.74
L178.37,128.78L179.35,130.83L180.33,132.89L181.29,134.95L182.23,137.02L183.17,139.10L184.09,141.19L185.00,143.29L185.89,145.39L186.78,147.50
L187.65,149.62L188.51,151.75L189.36,153.88L190.19,156.02L191.01,158.17L191.83,160.32L192.62,162.48L193.41,164.64L194.19,166.81L194.95,168.99
L195.70,171.17L196.45,173.36L197.18,175.55L197.89,177.75L198.60,179.95L199.30,182.15L199.99,184.36L200.66,186.58L201.33,188.80L201.98,191.02
L202.63,193.24L203.26,195.47L203.88,197.71L204.50,199.94L205.10,202.18L205.70,204.42L206.28,206.67L206.86,208.91L207.43,211.16L207.99,213.41
L208.54,215.67L209.08,217.92L209.61,220.18L210.14,222.44L210.65,224.70L211.16,226.96L211.66,229.22L212.16,231.49L212.64,233.75L213.12,236.02
L213.59,238.28L214.06,240.55L214.52,242.82L214.97,245.08L215.41,247.35L215.85,249.62L216.28,251.88L216.71,254.15L217.13,256.42L217.55,258.68
L217.96,260.95L218.37,263.21L218.77,265.48L219.16,267.74L219.56,270.00L219.94,272.26L220.33,274.52L220.71,276.77L221.09,279.03L221.46,281.28
L221.83,283.53L222.20,285.78L222.56,288.03L222.92,290.28L223.28,292.52L223.64,294.76L224.00,297.00L224.35,299.24L224.70,301.47L225.05,303.70
L225.40,305.93L225.75,308.16L226.10,310.38L226.45,312.60L226.80,314.81L227.15,317.02L227.50,319.23L227.85,321.44L228.20,323.64L228.55,325.84
L228.90,328.03L229.25,330.22L229.61,332.41L229.96,334.59L230.32,336.77L230.69,338.95L231.05,341.12L231.42,343.28L231.79,345.44L232.16,347.60
L232.54,349.75L232.92,351.90L233.30,354.04L233.69,356.18L234.08,358.31L234.48,360.44L234.88,362.57L235.29,364.68L235.70,366.80L236.12,368.90
L236.55,371.01L236.98,373.10L237.41,375.20L237.85,377.28L238.30,379.36L238.76,381.44L239.22,383.51L239.69,385.57L240.17,387.63L240.66,389.68
L241.15,391.72L241.65,393.76L242.16,395.79L242.68,397.82L243.21,399.84L243.75,401.85L244.30,403.86L244.85,405.86L245.42,407.85L246.00,409.84
L246.58,411.82L247.18,413.79L247.79,415.76L248.41,417.72L249.04,419.67L249.68,421.62L250.33,423.56L250.99,425.49L251.67,427.41L252.36,429.32
L253.06,431.23L253.77,433.13L254.50,435.02L255.24,436.91L255.99,438.78L256.76,440.65L257.54,442.51L258.33,444.37L259.14,446.21L259.96,448.04
L260.80,449.87L261.65,451.69L262.51,453.50L263.40,455.30L264.29,457.09L265.20,458.88L266.13,460.65L267.07,462.41L268.03,464.17L269.01,465.92
L270.00,467.65" stroke="green" fill="transparent" stroke-width="2" stroke-linecap="round" stroke-linejoin="round"/>

<path d="M0.00,0.00L2.00,0.01L4.00,0.02L6.00,0.05L8.00,0.10L10.00,0.15L12.00,0.22L14.00,0.30L16.00,0.39L17.99,0.49
L19.99,0.61L21.99,0.74L23.98,0.88L25.98,1.03L27.97,1.19L29.97,1.37L31.96,1.56L33.95,1.76L35.95,1.97L37.94,2.19
L39.93,2.43L41.91,2.68L43.90,2.94L45.89,3.21L47.87,3.49L49.86,3.79L51.84,4.10L53.82,4.42L55.80,4.75L57.78,5.09
L59.75,5.45L61.73,5.81L63.70,6.19L65.67,6.58L67.64,6.98L69.61,7.40L71.57,7.82L73.54,8.26L75.50,8.71L77.46,9.17
L79.42,9.64L81.37,10.12L83.33,10.61L85.28,11.12L87.23,11.63L89.17,12.16L91.12,12.70L93.06,13.25L95.00,13.81L96.94,14.38
L98.87,14.96L100.81,15.55L102.74,16.16L104.66,16.77L106.59,17.40L108.51,18.03L110.43,18.68L112.35,19.34L114.26,20.01L116.17,20.69
L118.08,21.38L119.99,22.07L121.89,22.78L123.79,23.50L125.68,24.23L127.58,24.97L129.47,25.73L131.36,26.49L133.24,27.26L135.12,28.04
L137.00,28.83L138.88,29.63L140.75,30.44L142.62,31.26L144.48,32.08L146.34,32.92L148.20,33.77L150.06,34.63L151.91,35.49L153.76,36.37
L155.60,37.25L157.44,38.15L159.28,39.05L161.12,39.96L162.95,40.88L164.78,41.81L166.60,42.75L168.42,43.70L170.24,44.65L172.06,45.62
L173.87,46.59L175.67,47.57L177.48,48.56L179.28,49.55L181.07,50.56L182.87,51.57L184.66,52.59L186.44,53.62L188.22,54.66L190.00,55.70
L191.78,56.75L193.55,57.81L195.32,58.88L197.08,59.95L198.84,61.04L200.60,62.12L202.35,63.22L204.10,64.32L205.85,65.43L207.59,66.55
L209.33,67.67L211.07,68.80L212.80,69.94L214.53,71.08L216.26,72.23L217.98,73.39L219.70,74.55L221.41,75.72L223.12,76.89L224.83,78.07
L226.53,79.26L228.24,80.45L229.93,81.65L231.63,82.85L233.32,84.06L235.01,85.27L236.69,86.49L238.37,87.72L240.05,88.95L241.72,90.18
L243.40,91.42L245.06,92.67L246.73,93.92L248.39,95.17L250.05,96.43L251.70,97.70L253.36,98.96L255.01,100.24L256.65,101.51L258.30,102.79
L259.94,104.08L261.58,105.37L263.21,106.66L264.84,107.96L266.47,109.26L268.10,110.56L269.72,111.87L271.34,113.18L272.96,114.49L274.58,115.81
L276.19,117.13L277.80,118.45L279.41,119.78L281.01,121.11L282.62,122.44L284.22,123.77L285.82,125.11L287.41,126.45L289.01,127.79L290.60,129.13
L292.19,130.48L293.78,131.83L295.36,133.18L296.95,134.53L298.53,135.88L300.11,137.24L301.69,138.60L303.26,139.95L304.84,141.31L306.41,142.68
L307.98,144.04L309.55,145.40L311.12,146.77L312.69,148.13L314.25,149.50L315.82,150.86L317.38,152.23L318.94,153.60L320.50,154.97L322.06,156.34
L323.62,157.70L325.18,159.07L326.73,160.44L328.29,161.81L329.84,163.18L331.40,164.55L332.95,165.92L334.50,167.29L336.05,168.65L337.60,170.02
L339.16,171.39L340.71,172.75L342.26,174.12L343.81,175.48L345.36,176.84L346.91,178.20L348.46,179.56L350.01,180.92L351.55,182.28L353.10,183.63
L354.65,184.99L356.20,186.34L357.76,187.69L359.31,189.04L360.86,190.38L362.41,191.73L363.96,193.07L365.52,194.41L367.07,195.75L368.62,197.08
L370.18,198.41L371.74,199.74L373.29,201.07L374.85,202.39L376.41,203.71L377.97,205.03L379.53,206.34L381.10,207.65L382.66,208.96L384.23,210.27
L385.80,211.57L387.37,212.86L388.94,214.16L390.51,215.44L392.09,216.73L393.66,218.01L395.24,219.29L396.82,220.56L398.41,221.83L399.99,223.09
L401.58,224.35L403.17,225.61L404.76,226.86L406.35,228.11L407.95,229.35L409.55,230.58L411.15,231.81L412.76,233.04L414.36,234.26L415.97,235.48
L417.59,236.69L419.20,237.89L420.82,239.09L422.45,240.28L424.07,241.47L425.70,242.65L427.33,243.83L428.97,244.99L430.61,246.16L432.25,247.31
L433.90,248.47L435.54,249.61L437.20,250.75L438.85,251.88L440.52,253.00L442.18,254.12L443.85,255.23L445.52,256.33L447.20,257.43L448.88,258.52
L450.56,259.60L452.25,260.68L453.95,261.74L455.64,262.80L457.35,263.85L459.05,264.90L460.76,265.93L462.48,266.96L464.20,267.98L465.92,269.00
L467.65,270.00" stroke="magenta" fill="transparent" stroke-width="2" stroke-linecap="round" stroke-linejoin="round"/>

<path d="M0.00,-0.00L2.00,-0.00L4.00,-0.00L6.00,-0.00L8.00,-0.00L10.00,-0.00L12.00,-0.00L14.00,-0.00L16.00,-0.00L18.00,-0.00
L20.00,-0.00L22.00,-0.00L24.00,-0.00L26.00,-0.00L28.00,-0.00L30.00,-0.00L32.00,-0.00L34.00,-0.00L36.00,-0.00L38.00,-0.00
L40.00,-0.00L42.00,-0.00L44.00,-0.00L46.00,-0.00L48.00,-0.00L50.00,-0.00L52.00,-0.00L54.00,-0.00L56.00,-0.00L58.00,-0.00
L60.00,-0.00L62.00,-0.00L64.00,-0.00L66.00,-0.00L68.00,-0.00L70.00,-0.00L72.00,-0.00L74.00,-0.00L76.00,-0.00L78.00,-0.00
L80.00,-0.00L82.00,-0.00L84.00,-0.00L86.00,-0.00L88.00,-0.00L90.00,-0.00L92.00,-0.00L94.00,-0.00L96.00,-0.00L98.00,-0.00
L100.00,-0.00L102.00,-0.00L104.00,-0.00L106.00,-0.00L108.00,-0.00L110.00,-0.00L112.00,-0.00L114.00,-0.00L116.00,-0.00L118.00,-0.00
L120.00,-0.00L122.00,-0.00L124.00,-0.00L126.00,-0.00L128.00,-0.00L130.00,-0.00L132.00,-0.00L134.00,-0.00L136.00,-0.00L138.00,-0.00
L140.00,-0.00L142.00,-0.00L144.00,-0.00L146.00,-0.00L148.00,-0.00L150.00,-0.00L152.00,-0.00L154.00,-0.00L156.00,-0.00L158.00,-0.00
L160.00,-0.00L162.00,-0.00L164.00,-0.00L166.00,-0.00L168.00,-0.00L170.00,-0.00L172.00,-0.00L174.00,-0.00L176.00,-0.00L178.00,-0.00
L180.00,-0.00L182.00,-0.00L184.00,-0.00L186.00,-0.00L188.00,-0.00L190.00,-0.00L192.00,-0.00L194.00,-0.00L196.00,-0.00L198.00,-0.00
L200.00,-0.00L202.00,-0.00L204.00,-0.00L206.00,-0.00L208.00,-0.00L210.00,-0.00L212.00,-0.00L214.00,-0.00L216.00,-0.00L218.00,-0.00
L220.00,-0.00L222.00,-0.00L224.00,-0.00L226.00,-0.00L228.00,-0.00L230.00,-0.00L232.00,-0.00L234.00,-0.00L236.00,-0.00L238.00,-0.00
L240.00,-0.00L242.00,-0.00L244.00,-0.00L246.00,-0.00L248.00,-0.00L250.00,-0.00L252.00,-0.00L254.00,-0.00L256.00,-0.00L258.00,-0.00
L260.00,-0.00L262.00,-0.00L264.00,-0.00L266.00,-0.00L268.00,-0.00L270.00,-0.00L272.00,-0.00L274.00,-0.00L276.00,-0.00L278.00,-0.00
L280.00,-0.00L282.00,-0.00L284.00,-0.00L286.00,-0.00L288.00,-0.00L290.00,-0.00L292.00,-0.00L294.00,-0.00L296.00,-0.00L298.00,-0.00
L300.00,-0.00L302.00,-0.00L304.00,-0.00L306.00,-0.00L308.00,-0.00L310.00,-0.00L312.00,-0.00L314.00,-0.00L316.00,-0.00L318.00,-0.00
L320.00,-0.00L322.00,-0.00L324.00,-0.00L326.00,-0.00L328.00,-0.00L330.00,-0.00L332.00,-0.00L334.00,-0.00L336.00,-0.00L338.00,-0.00
L340.00,-0.00L342.00,-0.00L344.00,-0.00L346.00,-0.00L348.00,-0.00L350.00,-0.00L352.00,-0.00L354.00,-0.00L356.00,-0.00L358.00,-0.00
L360.00,-0.00L362.00,-0.00L364.00,-0.00L366.00,-0.00L368.00,-0.00L370.00,-0.00L372.00,-0.00L374.00,-0.00L376.00,-0.00L378.00,-0.00
L380.00,-0.00L382.00,-0.00L384.00,-0.00L386.00,-0.00L388.00,-0.00L390.00,-0.00L392.00,-0.00L394.00,-0.00L396.00,-0.00L398.00,-0.00
L400.00,-0.00L402.00,-0.00L404.00,-0.00L406.00,-0.00L408.00,-0.00L410.00,-0.00L412.00,-0.00L414.00,-0.00L416.00,-0.00L418.00,-0.00
L420.00,-0.00L422.00,-0.00L424.00,-0.00L426.00,-0.00L428.00,-0.00L430.00,-0.00L432.00,-0.00L434.00,-0.00L436.00,-0.00L438.00,-0.00
L440.00,-0.00L442.00,-0.00L444.00,-0.00L446.00,-0.00L448.00,-0.00L450.00,-0.00L452.00,-0.00L454.00,-0.00L456.00,-0.00L458.00,-0.00
L460.00,-0.00L462.00,-0.00L464.00,-0.00L466.00,-0.00L468.00,-0.00L470.00,-0.00L472.00,-0.00L474.00,-0.00L476.00,-0.00L478.00,-0.00
L480.00,-0.00L482.00,-0.00L484.00,-0.00L486.00,-0.00L488.00,-0.00L490.00,-0.00L492.00,-0.00L494.00,-0.00L496.00,-0.00L498.00,-0.00
L500.00,-0.00L502.00,-0.00L504.00,-0.00L506.00,-0.00L508.00,-0.00L510.00,-0.00L512.00,-0.00L514.00,-0.00L516.00,-0.00L518.00,-0.00
L520.00,-0.00L522.00,-0.00L524.00,-0.00L526.00,-0.00L528.00,-0.00L530.00,-0.00L532.00,-0.00L534.00,-0.00L536.00,-0.00L538.00,-0.00
L540.00,-0.00" stroke="cyan" fill="transparent" stroke-width="2" stroke-linecap="round" stroke-linejoin="round"/>

<path d="M0.00,-0.00L2.00,-0.01L4.00,-0.02L6.00,-0.05L8.00,-0.10L10.00,-0.15L12.00,-0.22L14.00,-0.30L16.00,-0.39L17.99,-0.49
L19.99,-0.61L21.99,-0.74L23.98,-0.88L25.98,-1.03L27.97,-1.19L29.97,-1.37L31.96,-1.56L33.95,-1.76L35.95,-1.97L37.94,-2.19
L39.93,-2.43L41.91,-2.68L43.90,-2.94L45.89,-3.21L47.87,-3.49L49.86,-3.79L51.84,-4.10L53.82,-4.42L55.80,-4.75L57.78,-5.09
L59.75,-5.45L61.73,-5.81L63.70,-6.19L65.67,-6.58L67.64,-6.98L69.61,-7.40L71.57,-7.82L73.54,-8.26L75.50,-8.71L77.46,-9.17
L79.42,-9.64L81.37,-10.12L83.33,-10.61L85.28,-11.12L87.23,-11.63L89.17,-12.16L91.12,-12.70L93.06,-13.25L95.00,-13.81L96.94,-14.38
L98.87,-14.96L100.81,-15.55L102.74,-16.16L104.66,-16.77L106.59,-17.40L108.51,-18.03L110.43,-18.68L112.35,-19.34L114.26,-20.01L116.17,-20.69
L118.08,-21.38L119.99,-22.07L121.89,-22.78L123.79,-23.50L125.68,-24.23L127.58,-24.97L129.47,-25.73L131.36,-26.49L133.24,-27.26L135.12,-28.04
L137.00,-28.83L138.88,-29.63L140.75,-30.44L142.62,-31.26L144.48,-32.08L146.34,-32.92L148.20,-33.77L150.06,-34.63L151.91,-35.49L153.76,-36.37
L155.60,-37.25L157.44,-38.15L159.28,-39.05L161.12,-39.96L162.95,-40.88L164.78,-41.81L166.60,-42.75L168.42,-43.70L170.24,-44.65L172.06,-45.62
L173.87,-46.59L175.67,-47.57L177.48,-48.56L179.28,-49.55L181.07,-50.56L182.87,-51.57L184.66,-52.59L186.44,-53.62L188.22,-54.66L190.00,-55.70
L191.78,-56.75L193.55,-57.81L195.32,-58.88L197.08,-59.95L198.84,-61.04L200.60,-62.12L202.35,-63.22L204.10,-64.32L205.85,-65.43L207.59,-66.55
L209.33,-67.67L211.07,-68.80L212.80,-69.94L214.53,-71.08L216.26,-72.23L217.98,-73.39L219.70,-74.55L221.41,-75.72L223.12,-76.89L224.83,-78.07
L226.53,-79.26L228.24,-80.45L229.93,-81.65L231.63,-82.85L233.32,-84.06L235.01,-85.27L236.69,-86.49L238.37,-87.72L240.05,-88.95L241.72,-90.18
L243.40,-91.42L245.06,-92.67L246.73,-93.92L248.39,-95.17L250.05,-96.43L251.70,-97.70L253.36,-98.96L255.01,-100.24L256.65,-101.51L258.30,-102.79
L259.94,-104.08L261.58,-105.37L263.21,-106.66L264.84,-107.96L266.47,-109.26L268.10,-110.56L269.72,-111.87L271.34,-113.18L272.96,-114.49L274.58,-115.81
L276.19,-117.13L277.80,-118.45L279.41,-119.78L281.01,-121.11L282.62,-122.44L284.22,-123.77L285.82,-125.11L287.41,-126.45L289.01,-127.79L290.60,-129.13
L292.19,-130.48L293.78,-131.83L295.36,-133.18L296.95,-134.53L298.53,-135.88L300.11,-137.24L301.69,-138.60L303.26,-139.95L304.84,-141.31L306.41,-142.68
L307.98,-144.04L309.55,-145.40L311.12,-146.77L312.69,-148.13L314.25,-149.50L315.82,-150.86L317.38,-152.23L318.94,-153.60L320.50,-154.97L322.06,-156.34
L323.62,-157.70L325.18,-159.07L326.73,-160.44L328.29,-161.81L329.84,-163.18L331.40,-164.55L332.95,-165.92L334.50,-167.29L336.05,-168.65L337.60,-170.02
L339.16,-171.39L340.71,-172.75L342.26,-174.12L343.81,-175.48L345.36,-176.84L346.91,-178.20L348.46,-179.56L350.01,-180.92L351.55,-182.28L353.10,-183.63
L354.65,-184.99L356.20,-186.34L357.76,-187.69L359.31,-189.04L360.86,-190.38L362.41,-191.73L363.96,-193.07L365.52,-194.41L367.07,-195.75L368.62,-197.08
L370.18,-198.41L371.74,-199.74L373.29,-201.07L374.85,-202.39L376.41,-203.71L377.97,-205.03L379.53,-206.34L381.10,-207.65L382.66,-208.96L384.23,-210.27
L385.80,-211.57L387.37,-212.86L388.94,-214.16L390.51,-215.44L392.09,-216.73L393.66,-218.01L395.24,-219.29L396.82,-220.56L398.41,-221.83L399.99,-223.09
L401.58,-224.35L403.17,-225.61L404.76,-226.86L406.35,-228.11L407.95,-229.35L409.55,-230.58L411.15,-231.81L412.76,-233.04L414.36,-234.26L415.97,-235.48
L417.59,-236.69L419.20,-237.89L420.82,-239.09L422.45,-240.28L424.07,-241.47L425.70,-242.65L427.33,-243.83L428.97,-244.99L430.61,-246.16L432.25,-247.31
L433.90,-248.47L435.54,-249.61L437.20,-250.75L438.85,-251.88L440.52,-253.00L442.18,-254.12L443.85,-255.23L445.52,-256.33L447.20,-257.43L448.88,-258.52
L450.56,-259.60L452.25,-260.68L453.95,-261.74L455.64,-262.80L457.35,-263.85L459.05,-264.90L460.76,-265.93L462.48,-266.96L464.20,-267.98L465.92,-269.00
L467.65,-270.00" stroke="gray" fill="transparent" stroke-width="2" stroke-linecap="round" stroke-linejoin="round"/>

<path d="M0.00,-0.00L2.00,-0.01L4.00,-0.05L6.00,-0.11L8.00,-0.19L10.00,-0.30L11.99,-0.44L13.99,-0.60L15.98,-0.78L17.97,-0.99
L19.96,-1.22L21.95,-1.47L23.94,-1.75L25.92,-2.06L27.90,-2.38L29.88,-2.73L31.85,-3.11L33.82,-3.51L35.78,-3.93L37.75,-4.38
L39.70,-4.85L41.66,-5.35L43.61,-5.86L45.55,-6.41L47.49,-6.97L49.43,-7.56L51.35,-8.17L53.28,-8.81L55.19,-9.46L57.11,-10.15
L59.01,-10.85L60.91,-11.58L62.80,-12.33L64.69,-13.10L66.57,-13.90L68.44,-14.71L70.30,-15.55L72.16,-16.41L74.01,-17.30L75.85,-18.20
L77.68,-19.13L79.50,-20.08L81.32,-21.05L83.13,-22.05L84.92,-23.06L86.71,-24.10L88.50,-25.15L90.27,-26.23L92.03,-27.33L93.78,-28.45
L95.52,-29.58L97.26,-30.74L98.98,-31.92L100.69,-33.12L102.39,-34.34L104.09,-35.58L105.77,-36.84L107.44,-38.12L109.10,-39.42L110.75,-40.73
L112.39,-42.07L114.01,-43.42L115.63,-44.79L117.23,-46.18L118.82,-47.59L120.40,-49.02L121.97,-50.46L123.53,-51.93L125.08,-53.41L126.61,-54.90
L128.13,-56.42L129.64,-57.95L131.13,-59.50L132.62,-61.06L134.09,-62.64L135.55,-64.24L136.99,-65.85L138.43,-67.48L139.85,-69.12L141.26,-70.78
L142.65,-72.46L144.03,-74.15L145.40,-75.85L146.76,-77.57L148.10,-79.31L149.43,-81.05L150.75,-82.82L152.05,-84.59L153.34,-86.38L154.62,-88.18
L155.88,-90.00L157.14,-91.83L158.37,-93.67L159.60,-95.53L160.81,-97.39L162.00,-99.27L163.19,-101.16L164.36,-103.06L165.52,-104.98L166.66,-106.90
L167.79,-108.84L168.91,-110.79L170.01,-112.75L171.10,-114.72L172.18,-116.70L173.24,-118.69L174.29,-120.69L175.33,-122.70L176.36,-124.72L177.37,-126.74
L178.37,-128.78L179.35,-130.83L180.33,-132.89L181.29,-134.95L182.23,-137.02L183.17,-139.10L184.09,-141.19L185.00,-143.29L185.89,-145.39L186.78,-147.50
L187.65,-149.62L188.51,-151.75L189.36,-153.88L190.19,-156.02L191.01,-158.17L191.83,-160.32L192.62,-162.48L193.41,-164.64L194.19,-166.81L194.95,-168.99
L195.70,-171.17L196.45,-173.36L197.18,-175.55L197.89,-177.75L198.60,-179.95L199.30,-182.15L199.99,-184.36L200.66,-186.58L201.33,-188.80L201.98,-191.02
L202.63,-193.24L203.26,-195.47L203.88,-197.71L204.50,-199.94L205.10,-202.18L205.70,-204.42L206.28,-206.67L206.86,-208.91L207.43,-211.16L207.99,-213.41
L208.54,-215.67L209.08,-217.92L209.61,-220.18L210.14,-222.44L210.65,-224.70L211.16,-226.96L211.66,-229.22L212.16,-231.49L212.64,-233.75L213.12,-236.02
L213.59,-238.28L214.06,-240.55L214.52,-242.82L214.97,-245.08L215.41,-247.35L215.85,-249.62L216.28,-251.88L216.71,-254.15L217.13,-256.42L217.55,-258.68
L217.96,-260.95L218.37,-263.21L218.77,-265.48L219.16,-267.74L219.56,-270.00L219.94,-272.26L220.33,-274.52L220.71,-276.77L221.09,-279.03L221.46,-281.28
L221.83,-283.53L222.20,-285.78L222.56,-288.03L222.92,-290.28L223.28,-292.52L223.64,-294.76L224.00,-297.00L224.35,-299.24L224.70,-301.47L225.05,-303.70
L225.40,-305.93L225.75,-308.16L226.10,-310.38L226.45,-312.60L226.80,-314.81L227.15,-317.02L227.50,-319.23L227.85,-321.44L228.20,-323.64L228.55,-325.84
L228.90,-328.03L229.25,-330.22L229.61,-332.41L229.96,-334.59L230.32,-336.77L230.69,-338.95L231.05,-341.12L231.42,-343.28L231.79,-345.44L232.16,-347.60
L232.54,-349.75L232.92,-351.90L233.30,-354.04L233.69,-356.18L234.08,-358.31L234.48,-360.44L234.88,-362.57L235.29,-364.68L235.70,-366.80L236.12,-368.90
L236.55,-371.01L236.98,-373.10L237.41,-375.20L237.85,-377.28L238.30,-379.36L238.76,-381.44L239.22,-383.51L239.69,-385.57L240.17,-387.63L240.66,-389.68
L241.15,-391.72L241.65,-393.76L242.16,-395.79L242.68,-397.82L243.21,-399.84L243.75,-401.85L244.30,-403.86L244.85,-405.86L245.42,-407.85L246.00,-409.84
L246.58,-411.82L247.18,-413.79L247.79,-415.76L248.41,-417.72L249.04,-419.67L249.68,-421.62L250.33,-423.56L250.99,-425.49L251.67,-427.41L252.36,-429.32
L253.06,-431.23L253.77,-433.13L254.50,-435.02L255.24,-436.91L255.99,-438.78L256.76,-440.65L257.54,-442.51L258.33,-444.37L259.14,-446.21L259.96,-448.04
L260.80,-449.87L261.65,-451.69L262.51,-453.50L263.40,-455.30L264.29,-457.09L265.20,-458.88L266.13,-460.65L267.07,-462.41L268.03,-464.17L269.01,-465.92
L270.00,-467.65" stroke="black" fill="transparent" stroke-width="2" stroke-linecap="round" stroke-linejoin="round"/>

<path d="M0.00,-0.00L2.00,-0.02L4.00,-0.07L6.00,-0.16L7.99,-0.29L9.99,-0.46L11.98,-0.66L13.97,-0.89L15.96,-1.17L17.94,-1.48
L19.92,-1.82L21.89,-2.21L23.86,-2.62L25.82,-3.08L27.77,-3.57L29.72,-4.09L31.66,-4.66L33.59,-5.25L35.52,-5.88L37.43,-6.55
L39.34,-7.25L41.23,-7.99L43.12,-8.76L44.99,-9.57L46.86,-10.41L48.71,-11.28L50.55,-12.19L52.38,-13.14L54.19,-14.11L55.99,-15.12
L57.78,-16.16L59.56,-17.24L61.31,-18.35L63.06,-19.49L64.79,-20.66L66.50,-21.86L68.19,-23.10L69.87,-24.37L71.54,-25.66L73.18,-26.99
L74.81,-28.35L76.42,-29.74L78.01,-31.16L79.58,-32.61L81.13,-34.08L82.66,-35.59L84.18,-37.12L85.67,-38.69L87.14,-40.28L88.59,-41.90
L90.02,-43.54L91.43,-45.21L92.82,-46.91L94.18,-48.64L95.52,-50.39L96.84,-52.16L98.14,-53.97L99.41,-55.79L100.67,-57.64L101.89,-59.52
L103.09,-61.41L104.27,-63.33L105.43,-65.28L106.56,-67.24L107.66,-69.23L108.74,-71.24L109.80,-73.27L110.83,-75.32L111.83,-77.39L112.81,-79.48
L113.77,-81.59L114.69,-83.72L115.60,-85.87L116.47,-88.04L117.32,-90.22L118.14,-92.42L118.94,-94.64L119.71,-96.88L120.45,-99.13L121.17,-101.40
L121.86,-103.68L122.52,-105.98L123.16,-108.29L123.77,-110.62L124.35,-112.96L124.91,-115.32L125.44,-117.69L125.94,-120.07L126.41,-122.46L126.86,-124.86
L127.28,-127.28L127.67,-129.71L128.04,-132.14L128.38,-134.59L128.69,-137.05L128.98,-139.52L129.24,-141.99L129.47,-144.48L129.67,-146.97L129.85,-149.47
L130.01,-151.98L130.13,-154.50L130.23,-157.02L130.31,-159.55L130.36,-162.08L130.38,-164.63L130.37,-167.17L130.35,-169.72L130.29,-172.28L130.21,-174.84
L130.11,-177.40L129.98,-179.97L129.82,-182.54L129.64,-185.12L129.44,-187.70L129.21,-190.28L128.96,-192.86L128.68,-195.44L128.38,-198.03L128.06,-200.61
L127.71,-203.20L127.34,-205.79L126.95,-208.38L126.53,-210.96L126.10,-213.55L125.64,-216.14L125.15,-218.72L124.65,-221.31L124.13,-223.89L123.58,-226.48
L123.02,-229.06L122.43,-231.64L121.82,-234.21L121.20,-236.79L120.55,-239.36L119.88,-241.93L119.20,-244.49L118.50,-247.05L117.77,-249.61L117.03,-252.16
L116.28,-254.72L115.50,-257.26L114.71,-259.80L113.90,-262.34L113.07,-264.88L112.23,-267.40L111.37,-269.93L110.50,-272.45L109.61,-274.96L108.70,-277.47
L107.78,-279.97L106.85,-282.47L105.90,-284.96L104.94,-287.44L103.97,-289.92L102.98,-292.39L101.98,-294.86L100.97,-297.32L99.95,-299.78L98.92,-302.22
L97.87,-304.67L96.81,-307.10L95.75,-309.53L94.67,-311.95L93.58,-314.37L92.49,-316.77L91.38,-319.18L90.27,-321.57L89.15,-323.96L88.02,-326.34
L86.89,-328.71L85.74,-331.08L84.59,-333.44L83.44,-335.79L82.28,-338.13L81.11,-340.47L79.94,-342.80L78.76,-345.13L77.58,-347.44L76.39,-349.75
L75.20,-352.06L74.01,-354.35L72.82,-356.64L71.62,-358.92L70.42,-361.20L69.22,-363.47L68.01,-365.73L66.81,-367.98L65.60,-370.23L64.40,-372.47
L63.20,-374.71L61.99,-376.94L60.79,-379.16L59.59,-381.37L58.39,-383.58L57.19,-385.78L55.99,-387.98L54.80,-390.17L53.61,-392.35L52.43,-394.53
L51.25,-396.70L50.07,-398.87L48.89,-401.03L47.73,-403.18L46.57,-405.33L45.41,-407.48L44.26,-409.62L43.11,-411.75L41.98,-413.88L40.85,-416.00
L39.73,-418.12L38.61,-420.23L37.51,-422.34L36.41,-424.44L35.33,-426.54L34.25,-428.63L33.18,-430.72L32.12,-432.81L31.08,-434.89L30.04,-436.97
L29.01,-439.04L28.00,-441.11L27.00,-443.18L26.01,-445.24L25.04,-447.30L24.07,-449.36L23.13,-451.41L22.19,-453.46L21.27,-455.50L20.36,-457.55
L19.47,-459.59L18.59,-461.63L17.73,-463.66L16.89,-465.69L16.06,-467.72L15.25,-469.75L14.45,-471.78L13.68,-473.80L12.92,-475.82L12.18,-477.84
L11.45,-479.86L10.75,-481.88L10.06,-483.90L9.40,-485.91L8.75,-487.92L8.13,-489.93L7.52,-491.94L6.94,-493.95L6.37,-495.96L5.83,-497.97
L5.31,-499.97L4.81,-501.98L4.34,-503.98L3.88,-505.99L3.45,-507.99L3.05,-509.99L2.67,-511.99L2.31,-513.99L1.97,-516.00L1.67,-518.00
L1.38,-520.00L1.12,-522.00L0.89,-524.00L0.69,-526.00L0.51,-528.00L0.35,-530.00L0.23,-532.00L0.13,-534.00L0.06,-536.00L0.01,-538.00
L-0.00,-540.00" stroke="brown" fill="transparent" stroke-width="2" stroke-linecap="round" stroke-linejoin="round"/>

<path d="M0.00,-0.00L2.00,-0.02L4.00,-0.10L6.00,-0.22L7.99,-0.39L9.98,-0.61L11.97,-0.88L13.95,-1.19L15.92,-1.56L17.89,-1.97
L19.85,-2.43L21.80,-2.94L23.74,-3.49L25.68,-4.10L27.59,-4.75L29.50,-5.45L31.40,-6.19L33.28,-6.98L35.14,-7.82L36.99,-8.70
L38.82,-9.63L40.64,-10.60L42.44,-11.62L44.22,-12.69L45.98,-13.79L47.71,-14.95L49.43,-16.14L51.13,-17.38L52.80,-18.66L54.45,-19.98
L56.08,-21.34L57.68,-22.75L59.25,-24.19L60.80,-25.68L62.32,-27.20L63.82,-28.77L65.28,-30.37L66.72,-32.01L68.13,-33.69L69.50,-35.40
L70.85,-37.16L72.16,-38.94L73.45,-40.76L74.70,-42.62L75.91,-44.51L77.10,-46.43L78.25,-48.39L79.36,-50.37L80.44,-52.39L81.49,-54.44
L82.50,-56.52L83.47,-58.63L84.40,-60.76L85.30,-62.93L86.16,-65.12L86.98,-67.34L87.76,-69.58L88.51,-71.85L89.21,-74.14L89.88,-76.46
L90.51,-78.79L91.09,-81.15L91.64,-83.54L92.14,-85.94L92.61,-88.36L93.03,-90.80L93.41,-93.26L93.76,-95.74L94.06,-98.23L94.31,-100.74
L94.53,-103.27L94.70,-105.81L94.84,-108.36L94.93,-110.93L94.97,-113.51L94.98,-116.10L94.94,-118.70L94.86,-121.31L94.74,-123.94L94.58,-126.57
L94.37,-129.21L94.12,-131.85L93.83,-134.50L93.50,-137.16L93.12,-139.83L92.71,-142.50L92.25,-145.17L91.75,-147.84L91.21,-150.52L90.62,-153.20
L90.00,-155.88L89.33,-158.57L88.63,-161.25L87.88,-163.93L87.09,-166.61L86.27,-169.29L85.40,-171.96L84.49,-174.63L83.55,-177.30L82.56,-179.97
L81.54,-182.63L80.47,-185.28L79.37,-187.93L78.23,-190.57L77.06,-193.20L75.84,-195.83L74.59,-198.44L73.30,-201.05L71.98,-203.65L70.62,-206.24
L69.23,-208.82L67.80,-211.39L66.34,-213.95L64.84,-216.50L63.31,-219.03L61.74,-221.56L60.15,-224.07L58.52,-226.57L56.85,-229.05L55.16,-231.52
L53.44,-233.97L51.69,-236.42L49.90,-238.84L48.09,-241.25L46.25,-243.65L44.38,-246.03L42.48,-248.39L40.55,-250.74L38.60,-253.07L36.62,-255.39
L34.62,-257.69L32.59,-259.97L30.53,-262.23L28.45,-264.47L26.35,-266.70L24.22,-268.91L22.07,-271.10L19.90,-273.28L17.71,-275.43L15.50,-277.57
L13.26,-279.69L11.01,-281.78L8.74,-283.87L6.45,-285.93L4.13,-287.97L1.81,-289.99L-0.54,-292.00L-2.90,-293.99L-5.28,-295.95L-7.67,-297.90
L-10.08,-299.83L-12.50,-301.74L-14.94,-303.63L-17.39,-305.51L-19.85,-307.36L-22.33,-309.20L-24.81,-311.01L-27.31,-312.81L-29.82,-314.59L-32.34,-316.35
L-34.86,-318.10L-37.40,-319.82L-39.95,-321.53L-42.50,-323.22L-45.06,-324.89L-47.63,-326.54L-50.20,-328.18L-52.78,-329.80L-55.37,-331.41L-57.96,-332.99
L-60.55,-334.56L-63.15,-336.12L-65.75,-337.66L-68.35,-339.18L-70.96,-340.69L-73.57,-342.18L-76.18,-343.66L-78.79,-345.12L-81.40,-346.57L-84.01,-348.00
L-86.62,-349.42L-89.23,-350.83L-91.84,-352.22L-94.45,-353.60L-97.05,-354.97L-99.65,-356.33L-102.25,-357.67L-104.84,-359.00L-107.43,-360.33L-110.02,-361.64
L-112.60,-362.94L-115.17,-364.22L-117.74,-365.50L-120.30,-366.77L-122.86,-368.04L-125.41,-369.29L-127.95,-370.53L-130.48,-371.77L-133.00,-373.00L-135.52,-374.22
L-138.03,-375.43L-140.52,-376.64L-143.01,-377.84L-145.49,-379.04L-147.95,-380.23L-150.41,-381.41L-152.85,-382.60L-155.29,-383.77L-157.71,-384.95L-160.11,-386.12
L-162.51,-387.29L-164.89,-388.45L-167.26,-389.62L-169.61,-390.78L-171.95,-391.94L-174.27,-393.10L-176.58,-394.26L-178.88,-395.42L-181.16,-396.58L-183.42,-397.75
L-185.66,-398.91L-187.89,-400.07L-190.11,-401.24L-192.30,-402.41L-194.48,-403.59L-196.64,-404.76L-198.78,-405.94L-200.90,-407.13L-203.01,-408.32L-205.09,-409.51
L-207.16,-410.71L-209.20,-411.92L-211.22,-413.13L-213.23,-414.35L-215.21,-415.58L-217.17,-416.82L-219.11,-418.06L-221.03,-419.31L-222.93,-420.57L-224.80,-421.84
L-226.65,-423.12L-228.48,-424.41L-230.29,-425.70L-232.07,-427.01L-233.82,-428.33L-235.56,-429.67L-237.26,-431.01L-238.95,-432.37L-240.61,-433.73L-242.24,-435.12
L-243.84,-436.51L-245.42,-437.92L-246.98,-439.34L-248.50,-440.78L-250.00,-442.23L-251.47,-443.69L-252.92,-445.17L-254.33,-446.67L-255.72,-448.18L-257.07,-449.71
L-258.40,-451.25L-259.70,-452.81L-260.97,-454.39L-262.21,-455.99L-263.42,-457.60L-264.59,-459.23L-265.74,-460.88L-266.85,-462.54L-267.93,-464.23L-268.98,-465.93
L-270.00,-467.65" stroke="red" fill="transparent" stroke-width="2" stroke-linecap="round" stroke-linejoin="round"/>

<path d="M0.00,-0.00L2.00,-0.03L4.00,-0.12L5.99,-0.27L7.99,-0.49L9.97,-0.76L11.95,-1.09L13.92,-1.49L15.88,-1.94L17.83,-2.46
L19.77,-3.03L21.69,-3.67L23.60,-4.36L25.49,-5.11L27.37,-5.92L29.22,-6.79L31.06,-7.71L32.87,-8.69L34.66,-9.73L36.43,-10.82
L38.17,-11.97L39.88,-13.17L41.57,-14.43L43.22,-15.74L44.85,-17.10L46.44,-18.52L48.01,-19.99L49.53,-21.50L51.03,-23.07L52.49,-24.68
L53.91,-26.35L55.29,-28.06L56.63,-29.81L57.94,-31.62L59.20,-33.46L60.42,-35.35L61.59,-37.28L62.73,-39.26L63.82,-41.27L64.86,-43.33
L65.86,-45.42L66.81,-47.55L67.71,-49.72L68.56,-51.92L69.36,-54.15L70.12,-56.42L70.82,-58.72L71.47,-61.06L72.07,-63.42L72.62,-65.81
L73.11,-68.23L73.55,-70.67L73.94,-73.14L74.27,-75.63L74.54,-78.15L74.76,-80.69L74.93,-83.24L75.04,-85.82L75.09,-88.42L75.09,-91.03
L75.02,-93.66L74.91,-96.30L74.73,-98.95L74.50,-101.62L74.20,-104.30L73.86,-106.98L73.45,-109.68L72.98,-112.38L72.46,-115.09L71.88,-117.80
L71.24,-120.52L70.54,-123.24L69.79,-125.96L68.98,-128.68L68.11,-131.40L67.18,-134.11L66.20,-136.83L65.16,-139.54L64.06,-142.24L62.90,-144.94
L61.69,-147.63L60.43,-150.31L59.11,-152.98L57.73,-155.64L56.30,-158.29L54.81,-160.92L53.27,-163.54L51.68,-166.15L50.04,-168.74L48.34,-171.31
L46.59,-173.87L44.79,-176.40L42.93,-178.92L41.03,-181.42L39.08,-183.89L37.08,-186.35L35.03,-188.78L32.93,-191.18L30.79,-193.57L28.60,-195.92
L26.36,-198.26L24.08,-200.56L21.75,-202.84L19.38,-205.09L16.97,-207.31L14.52,-209.50L12.02,-211.66L9.48,-213.79L6.91,-215.89L4.29,-217.96
L1.64,-219.99L-1.05,-222.00L-3.78,-223.97L-6.55,-225.91L-9.35,-227.81L-12.18,-229.68L-15.05,-231.51L-17.94,-233.31L-20.88,-235.07L-23.84,-236.80
L-26.83,-238.50L-29.85,-240.15L-32.90,-241.77L-35.97,-243.36L-39.08,-244.90L-42.21,-246.41L-45.36,-247.88L-48.54,-249.32L-51.74,-250.72L-54.96,-252.08
L-58.21,-253.40L-61.47,-254.69L-64.76,-255.93L-68.06,-257.15L-71.38,-258.32L-74.72,-259.45L-78.08,-260.55L-81.45,-261.61L-84.83,-262.64L-88.24,-263.63
L-91.65,-264.58L-95.08,-265.49L-98.51,-266.37L-101.96,-267.21L-105.42,-268.01L-108.89,-268.78L-112.36,-269.51L-115.85,-270.21L-119.34,-270.88L-122.84,-271.50
L-126.34,-272.10L-129.85,-272.66L-133.36,-273.19L-136.88,-273.68L-140.40,-274.14L-143.92,-274.57L-147.44,-274.96L-150.97,-275.33L-154.49,-275.66L-158.02,-275.96
L-161.54,-276.23L-165.06,-276.48L-168.58,-276.69L-172.09,-276.87L-175.61,-277.03L-179.12,-277.16L-182.62,-277.26L-186.12,-277.34L-189.61,-277.39L-193.10,-277.41
L-196.58,-277.41L-200.06,-277.38L-203.53,-277.33L-206.98,-277.26L-210.44,-277.17L-213.88,-277.05L-217.31,-276.91L-220.73,-276.75L-224.15,-276.58L-227.55,-276.38
L-230.94,-276.16L-234.32,-275.93L-237.69,-275.68L-241.05,-275.41L-244.39,-275.13L-247.72,-274.83L-251.04,-274.52L-254.35,-274.19L-257.64,-273.86L-260.92,-273.50
L-264.18,-273.14L-267.43,-272.77L-270.67,-272.38L-273.89,-271.99L-277.10,-271.59L-280.29,-271.18L-283.46,-270.76L-286.62,-270.34L-289.77,-269.91L-292.89,-269.48
L-296.00,-269.04L-299.10,-268.60L-302.18,-268.15L-305.24,-267.70L-308.28,-267.25L-311.31,-266.81L-314.32,-266.36L-317.31,-265.91L-320.29,-265.46L-323.25,-265.02
L-326.19,-264.58L-329.11,-264.14L-332.02,-263.71L-334.90,-263.28L-337.77,-262.86L-340.62,-262.44L-343.45,-262.04L-346.27,-261.64L-349.06,-261.25L-351.84,-260.87
L-354.60,-260.50L-357.34,-260.14L-360.06,-259.79L-362.77,-259.45L-365.45,-259.13L-368.12,-258.82L-370.76,-258.53L-373.39,-258.25L-376.00,-257.99L-378.59,-257.74
L-381.16,-257.52L-383.72,-257.31L-386.25,-257.12L-388.76,-256.94L-391.26,-256.79L-393.73,-256.66L-396.19,-256.55L-398.63,-256.46L-401.04,-256.40L-403.44,-256.36
L-405.82,-256.34L-408.18,-256.35L-410.52,-256.38L-412.84,-256.44L-415.14,-256.52L-417.42,-256.63L-419.68,-256.77L-421.92,-256.94L-424.14,-257.14L-426.34,-257.37
L-428.52,-257.63L-430.68,-257.91L-432.82,-258.23L-434.94,-258.59L-437.03,-258.97L-439.11,-259.39L-441.17,-259.84L-443.20,-260.32L-445.21,-260.84L-447.21,-261.40
L-449.18,-261.99L-451.13,-262.62L-453.05,-263.29L-454.96,-263.99L-456.84,-264.73L-458.70,-265.51L-460.54,-266.33L-462.35,-267.18L-464.14,-268.08L-465.91,-269.02
L-467.65,-270.00" stroke="darkblue" fill="transparent" stroke-width="2" stroke-linecap="round" stroke-linejoin="round"/>

<path d="M0.00,-0.00L2.00,-0.04L4.00,-0.15L5.99,-0.33L7.98,-0.58L9.96,-0.91L11.93,-1.31L13.89,-1.79L15.83,-2.33L17.76,-2.95
L19.67,-3.63L21.56,-4.39L23.43,-5.22L25.27,-6.11L27.09,-7.08L28.88,-8.11L30.65,-9.21L32.38,-10.38L34.08,-11.61L35.74,-12.91
L37.37,-14.27L38.96,-15.69L40.51,-17.17L42.02,-18.72L43.48,-20.32L44.91,-21.99L46.28,-23.71L47.61,-25.48L48.89,-27.31L50.12,-29.20
L51.29,-31.13L52.41,-33.12L53.48,-35.15L54.49,-37.24L55.45,-39.36L56.34,-41.54L57.18,-43.76L57.95,-46.01L58.67,-48.31L59.32,-50.65
L59.91,-53.02L60.43,-55.43L60.89,-57.87L61.28,-60.34L61.60,-62.85L61.85,-65.38L62.04,-67.94L62.15,-70.52L62.20,-73.12L62.18,-75.75
L62.08,-78.40L61.91,-81.06L61.68,-83.74L61.36,-86.43L60.98,-89.14L60.52,-91.85L59.99,-94.58L59.39,-97.31L58.71,-100.04L57.97,-102.78
L57.14,-105.52L56.25,-108.26L55.28,-111.00L54.23,-113.73L53.12,-116.46L51.93,-119.18L50.66,-121.89L49.33,-124.59L47.92,-127.28L46.45,-129.95
L44.90,-132.61L43.28,-135.24L41.59,-137.86L39.83,-140.46L38.00,-143.04L36.11,-145.59L34.14,-148.12L32.11,-150.61L30.02,-153.09L27.85,-155.53
L25.63,-157.93L23.33,-160.31L20.98,-162.65L18.56,-164.96L16.09,-167.23L13.55,-169.46L10.95,-171.65L8.30,-173.80L5.59,-175.91L2.82,-177.98
L-0.00,-180.00L-2.88,-181.98L-5.80,-183.91L-8.78,-185.79L-11.81,-187.63L-14.89,-189.42L-18.02,-191.15L-21.19,-192.84L-24.41,-194.47L-27.68,-196.06
L-30.98,-197.59L-34.33,-199.06L-37.72,-200.48L-41.14,-201.85L-44.61,-203.16L-48.11,-204.41L-51.65,-205.61L-55.22,-206.75L-58.82,-207.84L-62.45,-208.86
L-66.11,-209.83L-69.80,-210.74L-73.52,-211.59L-77.27,-212.38L-81.04,-213.11L-84.83,-213.79L-88.64,-214.40L-92.47,-214.95L-96.33,-215.45L-100.20,-215.88
L-104.08,-216.26L-107.99,-216.57L-111.90,-216.83L-115.83,-217.02L-119.77,-217.16L-123.73,-217.24L-127.69,-217.26L-131.65,-217.22L-135.63,-217.12L-139.61,-216.96
L-143.59,-216.75L-147.58,-216.48L-151.57,-216.15L-155.56,-215.77L-159.55,-215.33L-163.54,-214.84L-167.53,-214.29L-171.51,-213.68L-175.49,-213.03L-179.46,-212.32
L-183.43,-211.55L-187.39,-210.74L-191.34,-209.87L-195.28,-208.95L-199.21,-207.98L-203.14,-206.97L-207.05,-205.90L-210.94,-204.79L-214.83,-203.63L-218.70,-202.43
L-222.55,-201.17L-226.39,-199.88L-230.21,-198.54L-234.02,-197.16L-237.81,-195.73L-241.58,-194.27L-245.33,-192.76L-249.06,-191.22L-252.77,-189.64L-256.46,-188.02
L-260.13,-186.36L-263.78,-184.67L-267.41,-182.94L-271.02,-181.18L-274.60,-179.39L-278.16,-177.56L-281.69,-175.71L-285.20,-173.82L-288.69,-171.91L-292.15,-169.97
L-295.59,-168.00L-299.01,-166.01L-302.39,-163.99L-305.76,-161.95L-309.10,-159.89L-312.41,-157.80L-315.69,-155.70L-318.95,-153.57L-322.19,-151.43L-325.40,-149.27
L-328.58,-147.09L-331.74,-144.89L-334.87,-142.69L-337.97,-140.47L-341.05,-138.23L-344.10,-135.99L-347.13,-133.73L-350.13,-131.47L-353.11,-129.20L-356.06,-126.92
L-358.98,-124.63L-361.88,-122.34L-364.75,-120.05L-367.60,-117.75L-370.43,-115.45L-373.23,-113.14L-376.00,-110.84L-378.76,-108.54L-381.48,-106.24L-384.19,-103.94
L-386.87,-101.65L-389.53,-99.36L-392.16,-97.07L-394.78,-94.79L-397.37,-92.52L-399.94,-90.26L-402.49,-88.00L-405.02,-85.76L-407.53,-83.53L-410.02,-81.31
L-412.48,-79.10L-414.93,-76.90L-417.36,-74.72L-419.78,-72.56L-422.17,-70.41L-424.54,-68.28L-426.90,-66.16L-429.25,-64.07L-431.57,-61.99L-433.88,-59.94
L-436.17,-57.90L-438.45,-55.89L-440.72,-53.90L-442.97,-51.94L-445.20,-50.00L-447.42,-48.08L-449.63,-46.19L-451.83,-44.33L-454.02,-42.49L-456.19,-40.68
L-458.35,-38.91L-460.50,-37.16L-462.64,-35.44L-464.78,-33.76L-466.90,-32.10L-469.01,-30.48L-471.11,-28.90L-473.21,-27.34L-475.30,-25.83L-477.38,-24.35
L-479.45,-22.90L-481.52,-21.49L-483.58,-20.12L-485.64,-18.79L-487.69,-17.50L-489.73,-16.25L-491.77,-15.04L-493.81,-13.87L-495.84,-12.74L-497.86,-11.66
L-499.89,-10.62L-501.91,-9.62L-503.93,-8.67L-505.94,-7.77L-507.95,-6.91L-509.96,-6.10L-511.97,-5.33L-513.98,-4.62L-515.98,-3.95L-517.99,-3.33
L-519.99,-2.76L-522.00,-2.25L-524.00,-1.78L-526.00,-1.37L-528.00,-1.01L-530.00,-0.70L-532.00,-0.45L-534.00,-0.26L-536.00,-0.11L-538.00,-0.03
L-540.00,0.00" stroke="green" fill="transparent" stroke-width="2" stroke-linecap="round" stroke-linejoin="round"/>

<path d="M-293.43,169.25L-290.94,173.50L-288.38,177.71L-285.77,181.89L-283.09,186.02L-280.35,190.12L-277.56,194.18L-274.70,198.20L-271.79,202.17L-268.82,206.10
L-265.80,209.99L-262.71,213.84L-259.58,217.64L-256.38,221.39L-253.13,225.09L-249.83,228.75L-246.48,232.36L-243.07,235.92L-239.62,239.43L-236.11,242.89
L-232.55,246.30L-228.94,249.66L-225.29,252.96L-221.58,256.21L-217.83,259.41L-214.04,262.55L-210.19,265.64L-206.31,268.67L-202.38,271.64L-198.41,274.55
L-194.39,277.41L-190.33,280.21L-186.24,282.95L-182.10,285.63L-177.93,288.25L-173.72,290.80L-169.47,293.30L-165.18,295.73L-160.87,298.11L-156.51,300.41
L-152.13,302.66L-147.71,304.84L-143.26,306.96L-138.78,309.01L-134.27,310.99L-129.73,312.91L-125.16,314.77L-120.57,316.55L-115.95,318.28L-111.31,319.93
L-106.65,321.51L-101.96,323.03L-97.25,324.48L-92.52,325.86L-87.77,327.17L-83.00,328.41L-78.21,329.59L-73.41,330.69L-68.59,331.72L-63.76,332.68
L-58.92,333.58L-54.06,334.40L-49.19,335.15L-44.31,335.83L-39.42,336.44L-34.52,336.98L-29.61,337.44L-24.70,337.84L-19.78,338.16L-14.86,338.41
L-9.94,338.59L-5.01,338.70L-0.09,338.74L4.84,338.70L9.77,338.60L14.69,338.42L19.61,338.17L24.53,337.85L29.44,337.46L34.35,336.99
L39.25,336.46L44.14,335.85L49.02,335.17L53.89,334.43L58.75,333.61L63.59,332.72L68.43,331.76L73.24,330.73L78.05,329.63L82.83,328.46
L87.60,327.22L92.35,325.91L97.08,324.53L101.80,323.08L106.48,321.57L111.15,319.98L115.79,318.33L120.41,316.62L125.00,314.83L129.57,312.98
L134.11,311.06L138.62,309.08L143.10,307.03L147.55,304.91L151.97,302.74L156.36,300.49L160.71,298.19L165.03,295.82L169.32,293.39L173.57,290.89
L177.78,288.34L181.96,285.72L186.10,283.04L190.19,280.31L194.25,277.51L198.27,274.65L202.24,271.74L206.17,268.77L210.06,265.74L213.90,262.66
L217.70,259.52L221.45,256.33L225.16,253.08L228.82,249.78L232.42,246.42L235.98,243.01L239.49,239.56L242.95,236.05L246.36,232.49L249.72,228.88
L253.02,225.22L256.27,221.52L259.47,217.77L262.61,213.97L265.69,210.13L268.72,206.24L271.69,202.31L274.60,198.34L277.46,194.32L280.26,190.26
L283.00,186.17L285.67,182.03L288.29,177.86L290.85,173.64L293.34,169.39L295.78,165.11L298.15,160.79L300.45,156.44L302.70,152.05L304.88,147.63
L306.99,143.18L309.04,138.70L311.03,134.19L312.95,129.65L314.80,125.08L316.59,120.49L318.30,115.87L319.96,111.23L321.54,106.57L323.06,101.88
L324.50,97.17L325.88,92.44L327.19,87.69L328.43,82.92L329.61,78.13L330.71,73.33L331.74,68.51L332.70,63.68L333.59,58.83L334.41,53.97
L335.16,49.10L335.84,44.22L336.45,39.33L336.98,34.43L337.45,29.53L337.84,24.62L338.17,19.70L338.42,14.78L338.60,9.85L338.70,4.93
L338.74,-0.00L338.70,-4.93L338.60,-9.85L338.42,-14.78L338.17,-19.70L337.84,-24.62L337.45,-29.53L336.98,-34.43L336.45,-39.33L335.84,-44.22
L335.16,-49.10L334.41,-53.97L333.59,-58.83L332.70,-63.68L331.74,-68.51L330.71,-73.33L329.61,-78.13L328.43,-82.92L327.19,-87.69L325.88,-92.44
L324.50,-97.17L323.06,-101.88L321.54,-106.57L319.96,-111.23L318.30,-115.87L316.59,-120.49L314.80,-125.08L312.95,-129.65L311.03,-134.19L309.04,-138.70
L306.99,-143.18L304.88,-147.63L302.70,-152.05L300.45,-156.44L298.15,-160.79L295.78,-165.11L293.34,-169.39L290.85,-173.64L288.29,-177.86L285.67,-182.03
L283.00,-186.17L280.26,-190.26L277.46,-194.32L274.60,-198.34L271.69,-202.31L268.72,-206.24L265.69,-210.13L262.61,-213.97L259.47,-217.77L256.27,-221.52
L253.02,-225.22L249.72,-228.88L246.36,-232.49L242.95,-236.05L239.49,-239.56L235.98,-243.01L232.42,-246.42L228.82,-249.78L225.16,-253.08L221.45,-256.33
L217.70,-259.52L213.90,-262.66L210.06,-265.74L206.17,-268.77L202.24,-271.74L198.27,-274.65L194.25,-277.51L190.19,-280.31L186.10,-283.04L181.96,-285.72
L177.78,-288.34L173.57,-290.89L169.32,-293.39L165.03,-295.82L160.71,-298.19L156.36,-300.49L151.97,-302.74L147.55,-304.91L143.10,-307.03L138.62,-309.08
L134.11,-311.06L129.57,-312.98L125.00,-314.83L120.41,-316.62L115.79,-318.33L111.15,-319.98L106.48,-321.57L101.80,-323.08L97.08,-324.53L92.35,-325.91
L87.60,-327.22L82.83,-328.46L78.05,-329.63L73.24,-330.73L68.43,-331.76L63.59,-332.72L58.75,-333.61L53.89,-334.43L49.02,-335.17L44.14,-335.85
L39.25,-336.46L34.35,-336.99L29.44,-337.46L24.53,-337.85L19.61,-338.17L14.69,-338.42L9.77,-338.60L4.84,-338.70L-0.09,-338.74L-5.01,-338.70
L-9.94,-338.59L-14.86,-338.41L-19.78,-338.16L-24.70,-337.84L-29.61,-337.44L-34.52,-336.98L-39.42,-336.44L-44.31,-335.83L-49.19,-335.15L-54.06,-334.40
L-58.92,-333.58L-63.76,-332.68L-68.59,-331.72L-73.41,-330.69L-78.21,-329.59L-83.00,-328.41L-87.77,-327.17L-92.52,-325.86L-97.25,-324.48L-101.96,-323.03
L-106.65,-321.51L-111.31,-319.93L-115.95,-318.28L-120.57,-316.55L-125.16,-314.77L-129.73,-312.91L-134.27,-310.99L-138.78,-309.01L-143.26,-306.96L-147.71,-304.84
L-152.13,-302.66L-156.51,-300.41L-160.87,-298.11L-165.18,-295.73L-169.47,-293.30L-173.72,-290.80L-177.93,-288.25L-182.10,-285.63L-186.24,-282.95L-190.33,-280.21
L-194.39,-277.41L-198.41,-274.55L-202.38,-271.64L-206.31,-268.67L-210.19,-265.64L-214.04,-262.55L-217.83,-259.41L-221.58,-256.21L-225.29,-252.96L-228.94,-249.66
L-232.55,-246.30L-236.11,-242.89L-239.62,-239.43L-243.07,-235.92L-246.48,-232.36L-249.83,-228.75L-253.13,-225.09L-256.38,-221.39L-259.58,-217.64L-262.71,-213.84
L-265.80,-209.99L-268.82,-206.10L-271.79,-202.17L-274.70,-198.20L-277.56,-194.18L-280.35,-190.12L-283.09,-186.02L-285.77,-181.89L-288.38,-177.71L-290.94,-173.50
L-293.43,-169.25" stroke="magenta" fill="transparent" stroke-width="2" stroke-linecap="round" stroke-linejoin="round"/>

</svg>
